<svg width="600" height="600" viewBox="0 0 600 600" fill="none" xmlns="http://www.w3.org/2000/svg">
<rect width="600" height="599.876" transform="matrix(1 0 0 -1 0 599.877)" fill="#E2FF00"/>
<path d="M150.169 600.002L226.906 455.869L310.983 600.002H463.123L318.324 383.803L463.123 152.924H312.985L236.248 297.056L152.171 152.924H0.0307617L146.165 367.788L0.0307617 600.002H150.169Z" fill="black"/>
<path d="M599.471 542.634C599.471 557.683 593.493 572.117 582.851 582.759C572.209 593.4 557.776 599.379 542.726 599.379C527.676 599.379 513.243 593.4 502.601 582.759C491.959 572.117 485.981 557.683 485.981 542.634C485.981 527.584 491.959 513.151 502.601 502.509C513.243 491.867 527.676 485.889 542.726 485.889C557.776 485.889 572.209 491.867 582.851 502.509C593.493 513.151 599.471 527.584 599.471 542.634Z" fill="black"/>
</svg>
